<svg width="1366" height="740" viewBox="0 0 1366 740" fill="none" xmlns="http://www.w3.org/2000/svg">
<rect width="1366" height="740" fill="white"/>
<circle cx="39" cy="43" r="10" fill="#E2EAFF"/>
<circle cx="109" cy="43" r="10" fill="#E2EAFF"/>
<circle cx="74" cy="43" r="10" fill="#E2EAFF"/>
<circle cx="249" cy="43" r="10" fill="#E2EAFF"/>
<circle cx="319" cy="43" r="10" fill="#E2EAFF"/>
<circle cx="284" cy="43" r="10" fill="#E2EAFF"/>
<circle cx="144" cy="43" r="10" fill="#E2EAFF"/>
<circle cx="39" cy="685" r="10" fill="#E2EAFF"/>
<circle cx="109" cy="685" r="10" fill="#E2EAFF"/>
<circle cx="74" cy="685" r="10" fill="#E2EAFF"/>
<circle cx="284" cy="685" r="10" fill="#E2EAFF"/>
<circle cx="144" cy="685" r="10" fill="#E2EAFF"/>
<circle cx="39" cy="643" r="10" fill="#E2EAFF"/>
<circle cx="74" cy="643" r="10" fill="#E2EAFF"/>
<circle cx="249" cy="643" r="10" fill="#E2EAFF"/>
<circle cx="319" cy="643" r="10" fill="#E2EAFF"/>
<circle cx="284" cy="643" r="10" fill="#E2EAFF"/>
<circle cx="39" cy="143" r="10" fill="#E2EAFF"/>
<circle cx="109" cy="143" r="10" fill="#E2EAFF"/>
<circle cx="74" cy="143" r="10" fill="#E2EAFF"/>
<circle cx="319" cy="143" r="10" fill="#E2EAFF"/>
<circle cx="284" cy="143" r="10" fill="#E2EAFF"/>
<circle cx="144" cy="143" r="10" fill="#E2EAFF"/>
<circle cx="39" cy="93" r="10" fill="#E2EAFF"/>
<circle cx="109" cy="93" r="10" fill="#E2EAFF"/>
<circle cx="74" cy="93" r="10" fill="#E2EAFF"/>
<circle cx="249" cy="93" r="10" fill="#E2EAFF"/>
<circle cx="284" cy="93" r="10" fill="#E2EAFF"/>
<circle cx="144" cy="93" r="10" fill="#E2EAFF"/>
<circle cx="214" cy="43" r="10" fill="#E2EAFF"/>
<circle cx="179" cy="43" r="10" fill="#E2EAFF"/>
<circle cx="1054" cy="585" r="10" fill="#E2EAFF"/>
<circle cx="1124" cy="585" r="10" fill="#E2EAFF"/>
<circle cx="1089" cy="585" r="10" fill="#E2EAFF"/>
<circle cx="1264" cy="585" r="10" fill="#E2EAFF"/>
<circle cx="1334" cy="585" r="10" fill="#E2EAFF"/>
<circle cx="1299" cy="585" r="10" fill="#E2EAFF"/>
<circle cx="1159" cy="585" r="10" fill="#E2EAFF"/>
<circle cx="1054" cy="685" r="10" fill="#E2EAFF"/>
<circle cx="1124" cy="685" r="10" fill="#E2EAFF"/>
<circle cx="1089" cy="685" r="10" fill="#E2EAFF"/>
<circle cx="1334" cy="685" r="10" fill="#E2EAFF"/>
<circle cx="1299" cy="685" r="10" fill="#E2EAFF"/>
<circle cx="1159" cy="685" r="10" fill="#E2EAFF"/>
<circle cx="1054" cy="635" r="10" fill="#E2EAFF"/>
<circle cx="1124" cy="635" r="10" fill="#E2EAFF"/>
<circle cx="1089" cy="635" r="10" fill="#E2EAFF"/>
<circle cx="1264" cy="635" r="10" fill="#E2EAFF"/>
<circle cx="1299" cy="635" r="10" fill="#E2EAFF"/>
<circle cx="1159" cy="635" r="10" fill="#E2EAFF"/>
<circle cx="1229" cy="585" r="10" fill="#E2EAFF"/>
<circle cx="1194" cy="585" r="10" fill="#E2EAFF"/>
<circle cx="1054" cy="163" r="10" fill="#E2EAFF"/>
<circle cx="1124" cy="163" r="10" fill="#E2EAFF"/>
<circle cx="1089" cy="163" r="10" fill="#E2EAFF"/>
<circle cx="1264" cy="163" r="10" fill="#E2EAFF"/>
<circle cx="1334" cy="163" r="10" fill="#E2EAFF"/>
<circle cx="1299" cy="163" r="10" fill="#E2EAFF"/>
<circle cx="1159" cy="163" r="10" fill="#E2EAFF"/>
<circle cx="1054" cy="263" r="10" fill="#E2EAFF"/>
<circle cx="1124" cy="263" r="10" fill="#E2EAFF"/>
<circle cx="1089" cy="263" r="10" fill="#E2EAFF"/>
<circle cx="1334" cy="263" r="10" fill="#E2EAFF"/>
<circle cx="1299" cy="263" r="10" fill="#E2EAFF"/>
<circle cx="1159" cy="263" r="10" fill="#E2EAFF"/>
<circle cx="1054" cy="213" r="10" fill="#E2EAFF"/>
<circle cx="1124" cy="213" r="10" fill="#E2EAFF"/>
<circle cx="1089" cy="213" r="10" fill="#E2EAFF"/>
<circle cx="1264" cy="213" r="10" fill="#E2EAFF"/>
<circle cx="1299" cy="213" r="10" fill="#E2EAFF"/>
<circle cx="1159" cy="213" r="10" fill="#E2EAFF"/>
<circle cx="1229" cy="163" r="10" fill="#E2EAFF"/>
<circle cx="1194" cy="163" r="10" fill="#E2EAFF"/>
</svg>
